<svg id="Calque_1" data-name="Calque 1" xmlns="http://www.w3.org/2000/svg" viewBox="0 0 71.47 40.32"><defs><style>.cls-1,.cls-3{fill:#fff;}.cls-2,.cls-3{isolation:isolate;}.cls-3{font-size:16px;font-family:Yanone Kaffeesatz;}</style></defs><title>next</title><path class="cls-1" d="M8.15,22.53A2.48,2.48,0,0,0,10.63,25H57L45.93,36.08a2.48,2.48,0,1,0,3.51,3.51l15.3-15.3a2.48,2.48,0,0,0,0-3.51h0L49.44,5.47A2.48,2.48,0,0,0,45.93,9L57,20.05H10.67a2.48,2.48,0,0,0-2.52,2.44S8.15,22.52,8.15,22.53Z" transform="translate(6 0)"/><g class="cls-2"><text class="cls-3" transform="translate(0 13.6)">siguien<tspan x="35.54" y="0">t</tspan><tspan x="39.82" y="0">e</tspan></text></g></svg>